ply
format ascii 1.0
comment Created by Open3D
element vertex 100
property double x
property double y
property double z
end_header
44 91 35
3 57 50
79 22 88
46 11 88
0 53 99
93 85 48
21 8 95
91 72 5
3 61 54
19 41 60
42 42 10
24 37 54
49 76 31
57 75 48
69 85 87
96 18 67
4 10 76
8 72 93
43 77 11
87 61 11
23 80 54
60 4 94
46 73 6
60 68 79
40 12 65
67 27 36
48 99 94
97 18 67
72 94 63
48 7 28
27 81 75
76 49 41
99 13 19
22 20 40
62 47 20
72 56 82
67 79 13
17 87 41
3 73 54
75 27 39
30 79 55
13 27 24
14 28 25
10 90 32
67 2 28
10 15 70
11 51 73
98 68 25
73 8 77
64 96 15
17 58 81
94 32 32
38 32 21
50 70 82
56 27 18
27 32 27
90 21 87
79 74 30
77 97 73
13 66 90
47 95 83
92 77 16
26 21 27
66 84 38
32 37 87
98 38 59
3 33 62
27 68 7
37 44 19
48 4 46
91 69 20
70 2 51
11 96 11
44 13 66
56 97 24
8 70 17
88 57 92
33 28 12
48 44 33
46 93 76
9 85 29
63 11 83
96 0 68
7 71 28
99 39 45
45 95 23
60 68 63
95 27 59
90 94 66
80 54 89
53 10 22
25 61 28
45 4 93
7 0 7
51 66 81
5 96 29
50 1 59
89 59 7
42 12 28
88 13 22
